<svg width="138" height="138" viewBox="0 0 138 138" fill="none" xmlns="http://www.w3.org/2000/svg">
<path d="M138 69C138 107.108 107.108 138 69 138C30.8924 138 0 107.108 0 69C0 30.8924 30.8924 0 69 0C107.108 0 138 30.8924 138 69Z" fill="white"/>
<path d="M82.0909 99.5454V92.8182C82.0909 89.2498 80.7117 85.8276 78.2566 83.3044C75.8016 80.7812 72.4719 79.3636 69 79.3636H46.0909C42.619 79.3636 39.2893 80.7812 36.8342 83.3044C34.3792 85.8276 33 89.2498 33 92.8182V99.5454" stroke="#F2AA4C" stroke-width="5" stroke-linecap="round" stroke-linejoin="round"/>
<path d="M57.5455 65.9091C64.7754 65.9091 70.6364 59.8853 70.6364 52.4545C70.6364 45.0238 64.7754 39 57.5455 39C50.3156 39 44.4546 45.0238 44.4546 52.4545C44.4546 59.8853 50.3156 65.9091 57.5455 65.9091Z" stroke="#F2AA4C" stroke-width="5" stroke-linecap="round" stroke-linejoin="round"/>
<path d="M85.3635 65.9091L91.909 72.6364L105 59.1818" stroke="#F2AA4C" stroke-width="5" stroke-linecap="round" stroke-linejoin="round"/>
</svg>
