<svg width="50" height="41" viewBox="0 0 50 41" fill="none" xmlns="http://www.w3.org/2000/svg">
<path d="M33 37.9999V34.111C33 32.0482 32.1571 30.0699 30.6568 28.6113C29.1565 27.1527 27.1217 26.3333 25 26.3333H11C8.87826 26.3333 6.84343 27.1527 5.34314 28.6113C3.84285 30.0699 3 32.0482 3 34.111V37.9999" stroke="#F2AA4C" stroke-width="5" stroke-linecap="round" stroke-linejoin="round"/>
<path d="M17.9999 18.5556C22.4182 18.5556 25.9999 15.0733 25.9999 10.7778C25.9999 6.48223 22.4182 3 17.9999 3C13.5817 3 9.99994 6.48223 9.99994 10.7778C9.99994 15.0733 13.5817 18.5556 17.9999 18.5556Z" stroke="#F2AA4C" stroke-width="5" stroke-linecap="round" stroke-linejoin="round"/>
<path d="M35 18.5556L39 22.4445L47 14.6667" stroke="#F2AA4C" stroke-width="5" stroke-linecap="round" stroke-linejoin="round"/>
</svg>
