<svg width="40" height="40" viewBox="0 0 40 40" fill="none" xmlns="http://www.w3.org/2000/svg">
<g clip-path="url(#clip0)">
<path d="M17.0948 6.43343L3.02357 30.0001C2.73345 30.5041 2.57995 31.0756 2.57832 31.6576C2.5767 32.2397 2.72701 32.812 3.01431 33.3176C3.30161 33.8233 3.71588 34.2447 4.2159 34.5398C4.71593 34.835 5.28428 34.9937 5.86441 35.0001H34.007C34.5871 34.9937 35.1554 34.835 35.6555 34.5398C36.1555 34.2447 36.5698 33.8233 36.8571 33.3176C37.1444 32.812 37.2947 32.2397 37.293 31.6576C37.2914 31.0756 37.1379 30.5041 36.8478 30.0001L22.7765 6.43343C22.4804 5.94361 22.0634 5.53863 21.5658 5.25757C21.0681 4.97651 20.5067 4.82886 19.9357 4.82886C19.3646 4.82886 18.8032 4.97651 18.3056 5.25757C17.808 5.53863 17.391 5.94361 17.0948 6.43343V6.43343Z" stroke="#ECA84F" stroke-width="4" stroke-linecap="round" stroke-linejoin="round"/>
<path d="M19.9357 15V21.6667" stroke="#ECA84F" stroke-width="4" stroke-linecap="round" stroke-linejoin="round"/>
<path d="M19.9357 28.3333H19.9523" stroke="#ECA84F" stroke-width="4" stroke-linecap="round" stroke-linejoin="round"/>
</g>
<defs>
<clipPath id="clip0">
<rect width="39.8714" height="40" fill="white"/>
</clipPath>
</defs>
</svg>
